<svg width="3169" height="1216" viewBox="0 0 3169 1216" fill="none" xmlns="http://www.w3.org/2000/svg">
<path opacity="0.094" fill-rule="evenodd" clip-rule="evenodd" d="M698.45 3C698.12 3 697.78 3 697.45 3C697.12 3 696.78 3 696.45 3C697.12 -1 697.78 -1 698.45 3Z" fill="#42AACD"/>
<path opacity="0.992" fill-rule="evenodd" clip-rule="evenodd" d="M696.45 3C696.78 3 697.12 3 697.45 3C706.92 34.268 719.92 63.935 736.45 92C744.47 106.716 753.47 120.716 763.45 134C768.72 142.264 774.72 149.931 781.45 157C787.07 164.949 793.4 172.282 800.45 179C807.48 187.035 815.15 194.368 823.45 201C836.56 213.609 850.73 224.943 865.95 235C865.73 232.913 865.9 230.913 866.45 229C870.21 227.039 873.71 224.705 876.95 222C878.47 216.844 880.31 211.844 882.45 207C882.24 206.414 881.91 205.914 881.45 205.5C883.98 201.426 886.98 197.76 890.45 194.5C893.59 193.899 896.59 192.899 899.45 191.5C898.22 190.01 898.22 188.51 899.45 187C924.32 200.934 949.65 214.101 975.45 226.5C911.62 256.388 853.62 294.722 801.45 341.5C762.87 379.393 728.04 420.226 696.95 464C676.34 436.454 655.01 409.454 632.95 383C572.93 316.405 502.1 264.572 420.45 227.5C419.12 226.833 419.12 226.167 420.45 225.5C484.28 196.231 543.95 160.565 599.45 118.5C639.95 86.555 672.28 48.055 696.45 3ZM754.45 230C737.62 241.445 722.29 254.778 708.45 270C704.81 273.98 701.14 277.98 697.45 282C693.76 277.98 690.09 273.98 686.45 270C681.78 264.667 676.78 259.667 671.45 255C666.44 249.99 661.1 245.323 655.45 241C650.32 237.262 644.98 233.762 639.45 230.5C646.9 226.194 653.9 221.36 660.45 216C674.36 206.094 686.69 194.427 697.45 181C705.54 190.594 714.21 199.76 723.45 208.5C733.41 216.31 743.74 223.476 754.45 230Z" fill="#FECC28"/>
<path opacity="0.971" fill-rule="evenodd" clip-rule="evenodd" d="M697.45 3C697.78 3 698.12 3 698.45 3C713.26 31.149 731.59 56.816 753.45 80C752.32 81.629 750.99 83.129 749.45 84.5C744.99 86.796 740.66 89.296 736.45 92C719.92 63.935 706.92 34.268 697.45 3Z" fill="#CF9B07"/>
<path opacity="0.981" fill-rule="evenodd" clip-rule="evenodd" d="M753.45 80C764.51 91.061 775.84 101.727 787.45 112C781.98 117.638 776.65 123.471 771.45 129.5C768.64 130.823 765.97 132.323 763.45 134C753.47 120.716 744.47 106.716 736.45 92C740.66 89.296 744.99 86.796 749.45 84.5C750.99 83.129 752.32 81.629 753.45 80Z" fill="#DCA70F"/>
<path opacity="0.987" fill-rule="evenodd" clip-rule="evenodd" d="M787.45 112C794.76 117.318 801.76 122.984 808.45 129C806.12 133.001 803.78 137.001 801.45 141C794.26 145.811 787.59 151.145 781.45 157C774.72 149.931 768.72 142.264 763.45 134C765.97 132.323 768.64 130.823 771.45 129.5C776.65 123.471 781.98 117.638 787.45 112Z" fill="#E4AF15"/>
<path opacity="0.988" fill-rule="evenodd" clip-rule="evenodd" d="M808.45 129C815.66 133.767 822.66 138.767 829.45 144C827.24 147.723 824.41 151.056 820.95 154C817.35 164.963 810.51 173.296 800.45 179C793.4 172.282 787.07 164.949 781.45 157C787.59 151.145 794.26 145.811 801.45 141C803.78 137.001 806.12 133.001 808.45 129Z" fill="#EBB619"/>
<path opacity="0.99" fill-rule="evenodd" clip-rule="evenodd" d="M829.45 144C838.12 149.667 846.78 155.333 855.45 161C852.26 163.53 849.1 166.196 845.95 169C843.43 175.678 840.26 182.011 836.45 188C833.52 190.31 830.19 191.643 826.45 192C825.74 195.094 824.74 198.094 823.45 201C815.15 194.368 807.48 187.035 800.45 179C810.51 173.296 817.35 164.963 820.95 154C824.41 151.056 827.24 147.723 829.45 144Z" fill="#F1BC1D"/>
<path opacity="0.99" fill-rule="evenodd" clip-rule="evenodd" d="M855.45 161C869.79 170.171 884.45 178.837 899.45 187C898.22 188.51 898.22 190.01 899.45 191.5C896.59 192.899 893.59 193.899 890.45 194.5C886.98 197.76 883.98 201.426 881.45 205.5C881.91 205.914 882.24 206.414 882.45 207C880.31 211.844 878.47 216.844 876.95 222C873.71 224.705 870.21 227.039 866.45 229C865.9 230.913 865.73 232.913 865.95 235C850.73 224.943 836.56 213.609 823.45 201C824.74 198.094 825.74 195.094 826.45 192C830.19 191.643 833.52 190.31 836.45 188C840.26 182.011 843.43 175.678 845.95 169C849.1 166.196 852.26 163.53 855.45 161Z" fill="#F7C322"/>
<path opacity="0.999" fill-rule="evenodd" clip-rule="evenodd" d="M630.45 229C631.33 228.869 631.99 229.202 632.45 230C629.24 236.327 626.24 242.661 623.45 249C611.46 241.843 598.8 236.01 585.45 231.5C600.54 232.562 615.54 231.729 630.45 229Z" fill="#D59F0A"/>
<path opacity="0.976" fill-rule="evenodd" clip-rule="evenodd" d="M660.45 216C653.9 221.36 646.9 226.194 639.45 230.5C644.98 233.762 650.32 237.262 655.45 241C650.04 247.474 645.38 254.474 641.45 262C635.09 258.154 629.09 253.821 623.45 249C626.24 242.661 629.24 236.327 632.45 230C631.99 229.202 631.33 228.869 630.45 229C640.92 225.839 650.92 221.506 660.45 216Z" fill="#E2AA12"/>
<path opacity="0.98" fill-rule="evenodd" clip-rule="evenodd" d="M655.45 241C661.1 245.323 666.44 249.99 671.45 255C666.86 259.442 662.69 264.442 658.95 270C658.09 271.587 657.42 273.254 656.95 275C656.28 274.248 655.45 273.914 654.45 274C650.09 269.972 645.76 265.972 641.45 262C645.38 254.474 650.04 247.474 655.45 241Z" fill="#EDB61A"/>
<path opacity="0.988" fill-rule="evenodd" clip-rule="evenodd" d="M754.45 230C755.19 229.869 755.86 230.036 756.45 230.5C735.03 250.915 717.86 274.415 704.95 301C701.48 309.418 698.81 318.085 696.95 327C694.18 321.896 691.01 317.063 687.45 312.5C690.54 305.912 695.2 300.745 701.45 297C702.84 292.558 705 288.558 707.95 285C708.26 282.944 708.76 280.944 709.45 279C708.63 275.864 708.3 272.864 708.45 270C722.29 254.778 737.62 241.445 754.45 230Z" fill="#FED32D"/>
<path opacity="0.987" fill-rule="evenodd" clip-rule="evenodd" d="M671.45 255C676.78 259.667 681.78 264.667 686.45 270C684.27 275.018 681.1 279.351 676.95 283C676.64 286.833 674.81 289.5 671.45 291C665.43 285.646 659.76 279.979 654.45 274C655.45 273.914 656.28 274.248 656.95 275C657.42 273.254 658.09 271.587 658.95 270C662.69 264.442 666.86 259.442 671.45 255Z" fill="#F8C322"/>
<path opacity="0.993" fill-rule="evenodd" clip-rule="evenodd" d="M79.4503 967C98.1363 947.65 114.136 926.32 127.45 903C135.718 890.8 142.718 877.8 148.45 864C153.411 854.46 157.411 844.46 160.45 834C164.088 826.42 166.754 818.42 168.45 810C172.033 799.67 174.699 789 176.45 778C178.792 770.98 180.125 763.64 180.45 756C182.615 746.58 183.949 736.92 184.45 727C185.084 721.36 185.418 715.69 185.45 710C186.443 701.18 186.777 692.18 186.45 683C186.45 679.33 186.45 675.67 186.45 672C186.423 665.31 186.089 658.65 185.45 652C185.281 647.32 184.948 642.65 184.45 638C183.69 632.01 183.023 626.01 182.45 620C181.636 613.3 180.636 606.64 179.45 600C178.271 592.615 176.771 585.282 174.95 578C174.389 577.478 173.722 577.145 172.95 577C164.87 579.488 156.704 580.654 148.45 580.5C145.346 582.48 142.013 583.98 138.45 585C137.864 584.791 137.364 584.457 136.95 584C132.128 586.077 127.462 588.411 122.95 591C122.617 590.667 122.283 590.333 121.95 590C116.518 591.653 111.018 592.986 105.45 594C98.3163 570.433 89.3163 547.599 78.4503 525.5C103.616 529.692 128.949 533.026 154.45 535.5C176.741 537.458 199.074 538.292 221.45 538C254.919 636.69 264.75 737.69 250.95 841C249.623 850.97 247.789 860.8 245.45 870.5C332.43 876.59 413.09 856.92 487.45 811.5C541.63 778.33 587.96 736.33 626.45 685.5C578.72 574.411 495.05 508.411 375.45 487.5C348.6 483.319 321.6 481.985 294.45 483.5C244.834 488.409 195.168 489.076 145.45 485.5C126.098 484.117 107.098 480.783 88.4503 475.5C53.2453 461.961 29.0783 437.461 15.9503 402C3.53033 366.724 -1.63667 330.391 0.450331 293C12.9223 330.291 34.9223 360.624 66.4503 384C72.9963 389.36 79.9963 394.194 87.4503 398.5C93.7553 402.486 100.422 405.653 107.45 408C118.806 414.23 130.806 418.23 143.45 420C146.761 409.232 148.761 398.732 149.45 388.5C152.208 378.4 154.208 368.233 155.45 358C163.117 358.667 170.783 359.333 178.45 360C178.705 361.436 179.038 362.936 179.45 364.5C177.593 375.263 175.26 385.929 172.45 396.5C173.611 406.217 172.944 416.217 170.45 426.5C179.904 428.853 189.571 430.353 199.45 431C206.093 431.712 212.759 432.046 219.45 432C227.783 432 236.117 432 244.45 432C250.873 432.291 257.206 431.958 263.45 431C270.31 430.862 276.98 430.196 283.45 429C289.35 429.179 295.02 428.512 300.45 427C306.65 426.848 312.65 426.182 318.45 425C324.3 424.684 329.97 424.018 335.45 423C340.21 423.274 344.88 422.941 349.45 422C363.45 422 377.45 422 391.45 422C395.12 422 398.78 422 402.45 422C408.12 422.26 413.79 422.593 419.45 423C424.43 423.553 429.43 423.887 434.45 424C441.4 425.101 448.4 426.101 455.45 427C460.08 427.883 464.75 428.55 469.45 429C480.79 431.536 492.12 434.202 503.45 437C510.73 439.203 518.06 441.203 525.45 443C538.84 447.578 552.17 452.578 565.45 458C585.64 466.761 604.97 477.094 623.45 489C650.8 506.339 675.47 527.006 697.45 551C764.24 454.872 855.24 394.039 970.45 368.5C1007.18 360.477 1044.35 356.31 1081.95 356C1115.08 358.407 1148.24 360.074 1181.45 361C1223.61 361.564 1264.94 356.064 1305.45 344.5C1340.24 334.699 1370.07 316.866 1394.95 291C1406.13 329.518 1404.46 367.518 1389.95 405C1376.91 436.106 1359.58 464.439 1337.95 490C1316.35 523.547 1299.85 559.547 1288.45 598C1244.79 599 1201.12 599.333 1157.45 599C1166.29 560.975 1178.63 524.141 1194.45 488.5C1163.39 487.951 1132.39 486.284 1101.45 483.5C1025.98 479.201 955.98 496.534 891.45 535.5C847.63 564.655 812.79 602.155 786.95 648C761.49 706.97 728.49 760.97 687.95 810C517.83 987.08 315 1039.41 79.4503 967Z" fill="#002175"/>
<path opacity="0.988" fill-rule="evenodd" clip-rule="evenodd" d="M86.4504 343C86.4274 345.427 85.9274 347.76 84.9504 350C78.4144 360.413 72.9144 371.413 68.4504 383C67.9934 383.798 67.3264 384.131 66.4504 384C34.9224 360.624 12.9224 330.291 0.450428 293C0.319428 292.261 0.486428 291.594 0.950428 291C18.8404 310.878 40.3404 325.711 65.4504 335.5C72.2844 338.5 79.2844 341 86.4504 343Z" fill="#000F63"/>
<path opacity="0.994" fill-rule="evenodd" clip-rule="evenodd" d="M86.4502 343C97.8132 347.091 109.48 350.091 121.45 352C121.302 355.761 120.302 359.261 118.45 362.5C119.396 365.357 119.396 368.357 118.45 371.5C117.651 374.108 116.651 376.774 115.45 379.5C115.537 382.037 115.537 384.537 115.45 387C113.538 394.418 110.872 401.418 107.45 408C100.422 405.653 93.7552 402.486 87.4502 398.5C79.9962 394.194 72.9962 389.36 66.4502 384C67.3262 384.131 67.9932 383.798 68.4502 383C72.9142 371.413 78.4142 360.413 84.9502 350C85.9272 347.76 86.4272 345.427 86.4502 343Z" fill="#00166A"/>
<path opacity="0.993" fill-rule="evenodd" clip-rule="evenodd" d="M121.45 352C132.639 354.643 143.972 356.643 155.45 358C154.208 368.233 152.208 378.4 149.45 388.5C148.761 398.732 146.761 409.232 143.45 420C130.806 418.23 118.806 414.23 107.45 408C110.872 401.418 113.538 394.418 115.45 387C115.537 384.537 115.537 382.037 115.45 379.5C116.651 376.774 117.651 374.108 118.45 371.5C119.396 368.357 119.396 365.357 118.45 362.5C120.302 359.261 121.302 355.761 121.45 352Z" fill="#001C70"/>
<path opacity="0.991" fill-rule="evenodd" clip-rule="evenodd" d="M298.45 356C303.45 356 308.45 356 313.45 356C314.54 378.341 315.21 401.341 315.45 425C316.45 425 317.45 425 318.45 425C312.65 426.182 306.65 426.848 300.45 427C300.38 412.932 300.38 399.266 300.45 386C300.42 384.471 299.75 383.304 298.45 382.5C299.68 373.886 299.68 365.053 298.45 356Z" fill="#034D9F"/>
<path opacity="0.99" fill-rule="evenodd" clip-rule="evenodd" d="M313.45 356C319.64 355.677 325.64 356.01 331.45 357C332.27 367.763 332.27 378.93 331.45 390.5C332.74 400.957 333.24 411.457 332.95 422C333.62 422.752 334.45 423.086 335.45 423C329.97 424.018 324.3 424.684 318.45 425C317.45 425 316.45 425 315.45 425C315.21 401.341 314.54 378.341 313.45 356Z" fill="#0353A5"/>
<path opacity="0.996" fill-rule="evenodd" clip-rule="evenodd" d="M298.45 356C299.68 365.053 299.68 373.886 298.45 382.5C299.75 383.304 300.42 384.471 300.45 386C300.38 399.266 300.38 412.932 300.45 427C295.02 428.512 289.35 429.179 283.45 429C282.73 426.944 282.07 424.777 281.45 422.5C282.16 414.36 282.49 406.027 282.45 397.5C281.71 384.201 280.71 371.034 279.45 358C285.78 357.333 292.12 356.667 298.45 356Z" fill="#02479A"/>
<path opacity="0.993" fill-rule="evenodd" clip-rule="evenodd" d="M331.45 357C337.87 356.709 344.21 357.042 350.45 358C350.07 379.279 349.74 400.613 349.45 422C344.88 422.941 340.21 423.274 335.45 423C334.45 423.086 333.62 422.752 332.95 422C333.24 411.457 332.74 400.957 331.45 390.5C332.27 378.93 332.27 367.763 331.45 357Z" fill="#0359AB"/>
<path opacity="0.993" fill-rule="evenodd" clip-rule="evenodd" d="M279.45 358C280.71 371.034 281.71 384.201 282.45 397.5C282.49 406.027 282.16 414.36 281.45 422.5C282.07 424.777 282.73 426.944 283.45 429C276.98 430.196 270.31 430.862 263.45 431C264 406.752 263 382.752 260.45 359C266.79 358.733 273.12 358.4 279.45 358Z" fill="#014194"/>
<path opacity="0.992" fill-rule="evenodd" clip-rule="evenodd" d="M350.45 358C357.66 357.958 364.66 358.625 371.45 360C370.58 368.539 369.58 377.206 368.45 386C369.2 397.265 369.53 408.932 369.45 421C375.45 421 381.45 421 387.45 421C389.05 420.732 390.38 421.066 391.45 422C377.45 422 363.45 422 349.45 422C349.74 400.613 350.07 379.279 350.45 358Z" fill="#045FB1"/>
<path opacity="0.992" fill-rule="evenodd" clip-rule="evenodd" d="M260.45 359C263 382.752 264 406.752 263.45 431C257.206 431.958 250.873 432.291 244.45 432C244.153 418.997 244.153 406.33 244.45 394C242.776 382.565 241.776 371.231 241.45 360C247.842 360.251 254.175 359.918 260.45 359Z" fill="#013B8E"/>
<path opacity="0.993" fill-rule="evenodd" clip-rule="evenodd" d="M371.45 360C378.15 360.385 384.81 361.052 391.45 362C390.49 369.273 389.49 376.44 388.45 383.5C389.3 386.161 388.96 389.161 387.45 392.5C387.61 401.574 387.61 411.074 387.45 421C381.45 421 375.45 421 369.45 421C369.53 408.932 369.2 397.265 368.45 386C369.58 377.206 370.58 368.539 371.45 360Z" fill="#0466B8"/>
<path opacity="0.998" fill-rule="evenodd" clip-rule="evenodd" d="M178.45 360C185.446 360.394 192.446 360.727 199.45 361C199.382 368.71 199.382 376.21 199.45 383.5C198.783 384.833 198.117 386.167 197.45 387.5C197.783 393.167 198.117 398.833 198.45 404.5C196.762 412.876 195.762 421.376 195.45 430C197.049 429.732 198.382 430.066 199.45 431C189.571 430.353 179.904 428.853 170.45 426.5C172.944 416.217 173.611 406.217 172.45 396.5C175.26 385.929 177.593 375.263 179.45 364.5C179.038 362.936 178.705 361.436 178.45 360Z" fill="#00287C"/>
<path opacity="0.993" fill-rule="evenodd" clip-rule="evenodd" d="M199.45 361C206.117 361 212.783 361 219.45 361C220.39 384.197 220.39 407.863 219.45 432C212.759 432.046 206.093 431.712 199.45 431C198.382 430.066 197.049 429.732 195.45 430C195.762 421.376 196.762 412.876 198.45 404.5C198.117 398.833 197.783 393.167 197.45 387.5C198.117 386.167 198.783 384.833 199.45 383.5C199.382 376.21 199.382 368.71 199.45 361Z" fill="#002E82"/>
<path opacity="0.995" fill-rule="evenodd" clip-rule="evenodd" d="M241.45 360C241.776 371.231 242.776 382.565 244.45 394C244.153 406.33 244.153 418.997 244.45 432C236.117 432 227.783 432 219.45 432C220.39 407.863 220.39 384.197 219.45 361C226.87 361.297 234.204 360.964 241.45 360Z" fill="#003488"/>
<path opacity="0.992" fill-rule="evenodd" clip-rule="evenodd" d="M391.45 362C396.78 363 402.12 364 407.45 365C407.31 368.736 407.31 372.236 407.45 375.5C406.45 381.167 405.45 386.833 404.45 392.5C404.78 393.5 405.12 394.5 405.45 395.5C404.78 396.833 404.12 398.167 403.45 399.5C403.78 400.5 404.12 401.5 404.45 402.5C403.98 408.482 402.98 414.482 401.45 420.5C402.01 420.883 402.34 421.383 402.45 422C398.78 422 395.12 422 391.45 422C390.38 421.066 389.05 420.732 387.45 421C387.61 411.074 387.61 401.574 387.45 392.5C388.96 389.161 389.3 386.161 388.45 383.5C389.49 376.44 390.49 369.273 391.45 362Z" fill="#056DBE"/>
<path opacity="0.995" fill-rule="evenodd" clip-rule="evenodd" d="M407.45 365C413.86 366.083 420.2 367.416 426.45 369C424.06 381.185 421.73 393.351 419.45 405.5C418.99 411.209 418.99 417.042 419.45 423C413.79 422.593 408.12 422.26 402.45 422C402.34 421.383 402.01 420.883 401.45 420.5C402.98 414.482 403.98 408.482 404.45 402.5C404.12 401.5 403.78 400.5 403.45 399.5C404.12 398.167 404.78 396.833 405.45 395.5C405.12 394.5 404.78 393.5 404.45 392.5C405.45 386.833 406.45 381.167 407.45 375.5C407.31 372.236 407.31 368.736 407.45 365Z" fill="#0673C4"/>
<path opacity="0.991" fill-rule="evenodd" clip-rule="evenodd" d="M426.45 369C431.68 369.889 436.68 371.222 441.45 373C440.71 380.11 439.05 387.277 436.45 394.5C436.91 394.914 437.24 395.414 437.45 396C436.53 405.612 435.53 414.945 434.45 424C429.43 423.887 424.43 423.553 419.45 423C418.99 417.042 418.99 411.209 419.45 405.5C421.73 393.351 424.06 381.185 426.45 369Z" fill="#0679CA"/>
<path opacity="0.99" fill-rule="evenodd" clip-rule="evenodd" d="M441.45 373C448.5 374.46 455.5 376.127 462.45 378C460.39 384.411 458.39 390.911 456.45 397.5C455.34 406.424 454.01 415.924 452.45 426C453.74 425.763 454.74 426.096 455.45 427C448.4 426.101 441.4 425.101 434.45 424C435.53 414.945 436.53 405.612 437.45 396C437.24 395.414 436.91 394.914 436.45 394.5C439.05 387.277 440.71 380.11 441.45 373Z" fill="#077FCF"/>
<path opacity="0.99" fill-rule="evenodd" clip-rule="evenodd" d="M462.45 378C467.93 379.824 473.26 381.824 478.45 384C477.32 386.494 476.32 388.994 475.45 391.5C474.47 399.162 472.97 406.995 470.95 415C470.12 419.637 469.62 424.304 469.45 429C464.75 428.55 460.08 427.883 455.45 427C454.74 426.096 453.74 425.763 452.45 426C454.01 415.924 455.34 406.424 456.45 397.5C458.39 390.911 460.39 384.411 462.45 378Z" fill="#0786D5"/>
<path opacity="0.989" fill-rule="evenodd" clip-rule="evenodd" d="M478.45 384C490.91 387.704 502.91 392.371 514.45 398C510.51 408.761 506.84 419.594 503.45 430.5C503.94 432.527 503.94 434.693 503.45 437C492.12 434.202 480.79 431.536 469.45 429C469.62 424.304 470.12 419.637 470.95 415C472.97 406.995 474.47 399.162 475.45 391.5C476.32 388.994 477.32 386.494 478.45 384Z" fill="#0990DD"/>
<path opacity="0.985" fill-rule="evenodd" clip-rule="evenodd" d="M514.45 398C522.55 400.885 530.22 404.551 537.45 409C533.16 420.557 529.16 431.89 525.45 443C518.06 441.203 510.73 439.203 503.45 437C503.94 434.693 503.94 432.527 503.45 430.5C506.84 419.594 510.51 408.761 514.45 398Z" fill="#0A98E4"/>
<path opacity="0.982" fill-rule="evenodd" clip-rule="evenodd" d="M537.45 409C551.95 415.742 565.61 423.742 578.45 433C575.15 438.354 571.98 443.354 568.95 448C567.48 451.258 566.32 454.592 565.45 458C552.17 452.578 538.84 447.578 525.45 443C529.16 431.89 533.16 420.557 537.45 409Z" fill="#0BA2EC"/>
<path opacity="0.998" fill-rule="evenodd" clip-rule="evenodd" d="M578.45 433C597.89 445.096 615.89 459.096 632.45 475C630.5 476.216 629 477.882 627.95 480C626.54 483.074 625.04 486.074 623.45 489C604.97 477.094 585.64 466.761 565.45 458C566.32 454.592 567.48 451.258 568.95 448C571.98 443.354 575.15 438.354 578.45 433Z" fill="#0CADF4"/>
<path opacity="0.957" fill-rule="evenodd" clip-rule="evenodd" d="M632.45 475C657.8 497.335 679.46 522.668 697.45 551C675.47 527.006 650.8 506.339 623.45 489C625.04 486.074 626.54 483.074 627.95 480C629 477.882 630.5 476.216 632.45 475Z" fill="#0DB8FA"/>
<path opacity="0.994" fill-rule="evenodd" clip-rule="evenodd" d="M179.45 600C175.689 598.855 172.189 599.521 168.95 602C164.145 601.283 159.311 601.45 154.45 602.5C140.347 606.59 126.013 609.75 111.45 612C109.651 605.937 107.651 599.937 105.45 594C111.018 592.986 116.518 591.653 121.95 590C122.283 590.333 122.617 590.667 122.95 591C127.462 588.411 132.128 586.077 136.95 584C137.364 584.457 137.864 584.791 138.45 585C142.013 583.98 145.346 582.48 148.45 580.5C156.704 580.654 164.87 579.488 172.95 577C173.722 577.145 174.389 577.478 174.95 578C176.771 585.282 178.271 592.615 179.45 600Z" fill="#00287B"/>
<path opacity="0.993" fill-rule="evenodd" clip-rule="evenodd" d="M179.45 600C180.636 606.64 181.636 613.3 182.45 620C173.871 620.95 165.537 621.95 157.45 623C155.191 622.97 153.025 622.63 150.95 622C139.96 625.47 128.46 628.13 116.45 630C114.414 624.21 112.748 618.21 111.45 612C126.013 609.75 140.347 606.59 154.45 602.5C159.311 601.45 164.145 601.283 168.95 602C172.189 599.521 175.689 598.855 179.45 600Z" fill="#002E81"/>
<path opacity="0.994" fill-rule="evenodd" clip-rule="evenodd" d="M182.45 620C183.023 626.01 183.69 632.01 184.45 638C183.516 636.93 183.182 635.6 183.45 634C166.84 636.12 150.507 637.96 134.45 639.5C129.422 641.07 124.422 642.24 119.45 643C117.832 638.93 116.832 634.59 116.45 630C128.46 628.13 139.96 625.47 150.95 622C153.025 622.63 155.191 622.97 157.45 623C165.537 621.95 173.871 620.95 182.45 620Z" fill="#013386"/>
<path opacity="0.992" fill-rule="evenodd" clip-rule="evenodd" d="M184.45 638C184.948 642.65 185.281 647.32 185.45 652C178.86 652.31 172.36 651.98 165.95 651C158.897 652.49 151.73 653.49 144.45 654C141.207 653.45 138.04 654.12 134.95 656C134.536 655.54 134.036 655.21 133.45 655C129.836 656.32 126.17 657.32 122.45 658C120.832 653.24 119.832 648.24 119.45 643C124.422 642.24 129.422 641.07 134.45 639.5C150.507 637.96 166.84 636.12 183.45 634C183.182 635.6 183.516 636.93 184.45 638Z" fill="#01398C"/>
<path opacity="0.996" fill-rule="evenodd" clip-rule="evenodd" d="M911.45 645.001C1033.12 644.671 1154.79 645.001 1276.45 646.001C1260.13 719.101 1260.63 792.101 1277.95 865.001C1281.97 881.561 1287.47 897.561 1294.45 913.001C1275.82 920.081 1256.82 926.081 1237.45 931.001C1227.57 933.841 1217.57 936.181 1207.45 938.001C1203.53 939.141 1199.53 939.981 1195.45 940.501C1194.33 941.341 1193.66 942.511 1193.45 944.001C1194.29 946.271 1194.29 948.431 1193.45 950.501C1195.59 954.061 1196.26 957.391 1195.45 960.501C1198.19 971.411 1199.85 982.241 1200.45 993.001C1190.5 994.491 1180.5 995.491 1170.45 996.001C1168.84 983.221 1167.17 971.051 1165.45 959.501C1165.78 958.501 1166.12 957.501 1166.45 956.501C1165.66 953.421 1165.16 950.261 1164.95 947.001C1159.16 945.781 1153.33 945.781 1147.45 947.001C1136.28 947.421 1125.28 948.091 1114.45 949.001C1106.45 949.001 1098.45 949.001 1090.45 949.001C1081.09 949.151 1071.76 948.821 1062.45 948.001C1054.09 947.611 1045.76 946.941 1037.45 946.001C1028.78 945.001 1020.12 944.001 1011.45 943.001C1003.61 941.471 995.61 940.141 987.45 939.001C982.09 937.791 976.75 936.461 971.45 935.001C963.7 933.721 956.03 932.051 948.45 930.001C939.06 927.541 929.72 924.871 920.45 922.001C909.37 918.531 898.37 914.861 887.45 911.001C873.89 906.221 860.55 900.881 847.45 895.001C833 888.611 818.66 881.941 804.45 875.001C776.42 860.661 749.75 844.331 724.45 826.001C735.43 811.431 746.59 796.431 757.95 781.001C771.53 760.841 784.37 740.171 796.45 719.001C843.42 770.661 898.76 810.821 962.45 839.501C1022.23 865.131 1084.56 875.631 1149.45 871.001C1143.59 837.901 1139.92 804.571 1138.45 771.001C1139.11 769.711 1139.44 768.211 1139.45 766.501C1138.22 753.351 1137.22 740.181 1136.45 727.001C1123.5 728.431 1110.5 729.091 1097.45 729.001C1091.12 729.001 1084.78 729.001 1078.45 729.001C1072.96 728.071 1067.29 727.401 1061.45 727.001C1056.51 725.961 1051.51 725.291 1046.45 725.001C1044.57 724.161 1042.57 723.831 1040.45 724.001C1035.3 722.381 1029.97 721.051 1024.45 720.001C1019.86 718.471 1015.19 717.141 1010.45 716.001C1006.01 713.961 1001.34 712.301 996.45 711.001C992.08 708.491 987.42 706.491 982.45 705.001C978.18 702.531 973.85 700.031 969.45 697.501C968.01 696.721 966.67 696.891 965.45 698.001C962.28 703.681 959.11 709.341 955.95 715.001C950.89 719.841 946.72 724.841 943.45 730.001C939.16 726.111 935.33 721.781 931.95 717.001C929.84 713.771 928 710.441 926.45 707.001C929.66 704.891 932.66 702.561 935.45 700.001C937.09 696.831 939.26 694.831 941.95 694.001C944.25 690.901 946.41 687.741 948.45 684.501C938.7 676.761 929.54 668.261 920.95 659.001C917.52 654.451 914.35 649.781 911.45 645.001Z" fill="#002175"/>
<path opacity="0.993" fill-rule="evenodd" clip-rule="evenodd" d="M185.45 652C186.089 658.65 186.423 665.31 186.45 672C185.727 670.29 184.393 669.29 182.45 669C176.675 670.86 170.842 671.19 164.95 670C154.798 670.72 144.631 671.72 134.45 673C131.26 671.84 127.927 671.18 124.45 671C123.269 666.76 122.602 662.42 122.45 658C126.17 657.32 129.836 656.32 133.45 655C134.036 655.21 134.536 655.54 134.95 656C138.04 654.12 141.207 653.45 144.45 654C151.73 653.49 158.897 652.49 165.95 651C172.36 651.98 178.86 652.31 185.45 652Z" fill="#024093"/>
<path opacity="0.992" fill-rule="evenodd" clip-rule="evenodd" d="M186.45 672C186.45 675.67 186.45 679.33 186.45 683C176.755 683.55 167.089 684.22 157.45 685C155.844 684.42 154.178 684.09 152.45 684C145.97 685.61 139.47 685.95 132.95 685C130.903 686.11 128.737 686.78 126.45 687C125.69 681.68 125.023 676.35 124.45 671C127.927 671.18 131.26 671.84 134.45 673C144.631 671.72 154.798 670.72 164.95 670C170.842 671.19 176.675 670.86 182.45 669C184.393 669.29 185.727 670.29 186.45 672Z" fill="#024799"/>
<path opacity="0.98" fill-rule="evenodd" clip-rule="evenodd" d="M911.45 645C914.35 649.78 917.52 654.45 920.95 659C929.54 668.26 938.7 676.76 948.45 684.5C946.41 687.74 944.25 690.9 941.95 694C939.26 694.83 937.09 696.83 935.45 700C932.66 702.56 929.66 704.89 926.45 707C914.82 687.83 909.82 667.16 911.45 645Z" fill="#001267"/>
<path opacity="0.993" fill-rule="evenodd" clip-rule="evenodd" d="M186.45 683C186.777 692.18 186.443 701.18 185.45 710C185.773 706.27 185.439 702.61 184.45 699C183.657 698.57 182.823 698.24 181.95 698C164.253 699.36 146.419 700.69 128.45 702C127.783 697 127.117 692 126.45 687C128.737 686.78 130.903 686.11 132.95 685C139.47 685.95 145.97 685.61 152.45 684C154.178 684.09 155.844 684.42 157.45 685C167.089 684.22 176.755 683.55 186.45 683Z" fill="#034D9F"/>
<path opacity="0.988" fill-rule="evenodd" clip-rule="evenodd" d="M982.45 705.001C978.74 710.591 975.58 716.591 972.95 723.001C968.1 730.051 963.27 737.051 958.45 744.001C954.66 741.381 950.99 738.551 947.45 735.501C945.98 733.731 944.65 731.891 943.45 730.001C946.72 724.841 950.89 719.841 955.95 715.001C959.11 709.341 962.28 703.681 965.45 698.001C966.67 696.891 968.01 696.721 969.45 697.501C973.85 700.031 978.18 702.531 982.45 705.001Z" fill="#002C7F"/>
<path opacity="0.987" fill-rule="evenodd" clip-rule="evenodd" d="M982.45 705C987.42 706.49 992.08 708.49 996.45 711C989.87 726.37 983.53 741.71 977.45 757C970.56 753.4 964.23 749.06 958.45 744C963.27 737.05 968.1 730.05 972.95 723C975.58 716.59 978.74 710.59 982.45 705Z" fill="#01398B"/>
<path opacity="0.993" fill-rule="evenodd" clip-rule="evenodd" d="M185.45 710C185.418 715.69 185.084 721.36 184.45 727C180.805 726.5 177.305 725.5 173.95 724C159.342 724.55 144.842 724.55 130.45 724C129.53 716.71 128.863 709.38 128.45 702C146.419 700.69 164.253 699.36 181.95 698C182.823 698.24 183.657 698.57 184.45 699C185.439 702.61 185.773 706.27 185.45 710Z" fill="#0458A9"/>
<path opacity="0.99" fill-rule="evenodd" clip-rule="evenodd" d="M996.45 711C1001.34 712.3 1006.01 713.96 1010.45 716C1004.5 731.78 999.17 747.78 994.45 764C988.54 762.25 982.87 759.92 977.45 757C983.53 741.71 989.87 726.37 996.45 711Z" fill="#024597"/>
<path opacity="0.988" fill-rule="evenodd" clip-rule="evenodd" d="M1010.45 716C1015.19 717.14 1019.86 718.47 1024.45 720C1020.69 736.03 1016.69 752.37 1012.45 769C1006.26 767.95 1000.26 766.29 994.45 764C999.17 747.78 1004.5 731.78 1010.45 716Z" fill="#0252A3"/>
<path opacity="0.992" fill-rule="evenodd" clip-rule="evenodd" d="M1024.45 720C1029.97 721.05 1035.3 722.38 1040.45 724C1039.2 724.08 1038.37 724.74 1037.95 726C1035.21 733.06 1034.05 740.22 1034.45 747.5C1032.91 755.08 1031.24 762.92 1029.45 771C1023.73 770.71 1018.07 770.04 1012.45 769C1016.69 752.37 1020.69 736.03 1024.45 720Z" fill="#035CAD"/>
<path opacity="0.994" fill-rule="evenodd" clip-rule="evenodd" d="M1040.45 724C1042.57 723.83 1044.57 724.16 1046.45 725C1043.95 733.6 1042.95 742.6 1043.45 752C1041.01 758.07 1039.67 764.4 1039.45 771C1036.12 771 1032.78 771 1029.45 771C1031.24 762.92 1032.91 755.08 1034.45 747.5C1034.05 740.22 1035.21 733.06 1037.95 726C1038.37 724.74 1039.2 724.08 1040.45 724Z" fill="#0467B6"/>
<path opacity="0.994" fill-rule="evenodd" clip-rule="evenodd" d="M1046.45 725C1051.51 725.29 1056.51 725.96 1061.45 727C1059.82 740.73 1057.82 754.4 1055.45 768C1056.08 768.92 1056.41 769.92 1056.45 771C1050.78 771 1045.12 771 1039.45 771C1039.67 764.4 1041.01 758.07 1043.45 752C1042.95 742.6 1043.95 733.6 1046.45 725Z" fill="#0571C0"/>
<path opacity="0.993" fill-rule="evenodd" clip-rule="evenodd" d="M1061.45 727C1067.29 727.4 1072.96 728.07 1078.45 729C1076.53 743.21 1075.53 757.21 1075.45 771C1069.12 771 1062.78 771 1056.45 771C1056.41 769.92 1056.08 768.92 1055.45 768C1057.82 754.4 1059.82 740.73 1061.45 727Z" fill="#077DCB"/>
<path opacity="0.994" fill-rule="evenodd" clip-rule="evenodd" d="M1078.45 729C1084.78 729 1091.12 729 1097.45 729C1097.2 732.65 1097.2 736.15 1097.45 739.5C1096.78 741.17 1096.12 742.83 1095.45 744.5C1096.44 752.1 1096.61 759.93 1095.95 768C1095.44 769.03 1094.94 770.03 1094.45 771C1088.12 771 1081.78 771 1075.45 771C1075.53 757.21 1076.53 743.21 1078.45 729Z" fill="#088AD8"/>
<path opacity="0.994" fill-rule="evenodd" clip-rule="evenodd" d="M1138.45 771C1123.78 771 1109.12 771 1094.45 771C1094.94 770.03 1095.44 769.03 1095.95 768C1096.61 759.93 1096.44 752.1 1095.45 744.5C1096.12 742.83 1096.78 741.17 1097.45 739.5C1097.2 736.15 1097.2 732.65 1097.45 729C1110.5 729.09 1123.5 728.43 1136.45 727C1137.22 740.18 1138.22 753.35 1139.45 766.5C1139.44 768.21 1139.11 769.71 1138.45 771Z" fill="#0A97E4"/>
<path opacity="0.988" fill-rule="evenodd" clip-rule="evenodd" d="M130.45 724C144.842 724.55 159.342 724.55 173.95 724C177.305 725.5 180.805 726.5 184.45 727C183.949 736.92 182.615 746.58 180.45 756C177.335 754.19 173.835 752.86 169.95 752C166.211 753.02 162.545 752.69 158.95 751C156.826 751.56 154.659 751.9 152.45 752C144.88 750.81 137.547 750.14 130.45 750C130.45 741.33 130.45 732.67 130.45 724Z" fill="#0565B5"/>
<path opacity="0.985" fill-rule="evenodd" clip-rule="evenodd" d="M130.45 750C137.547 750.14 144.88 750.81 152.45 752C154.659 751.9 156.826 751.56 158.95 751C162.545 752.69 166.211 753.02 169.95 752C173.835 752.86 177.335 754.19 180.45 756C180.125 763.64 178.792 770.98 176.45 778C169.78 777.61 163.114 777.11 156.45 776.5C147.897 774.13 139.23 772.3 130.45 771C130.45 764 130.45 757 130.45 750Z" fill="#0671C0"/>
<path opacity="0.992" fill-rule="evenodd" clip-rule="evenodd" d="M130.45 771C139.23 772.3 147.897 774.13 156.45 776.5C163.114 777.11 169.78 777.61 176.45 778C174.699 789 172.033 799.67 168.45 810C168.62 808.68 168.287 807.51 167.45 806.5C163.594 805.41 159.76 804.24 155.95 803C154.806 803.41 153.639 803.74 152.45 804C150.324 802.71 147.991 801.88 145.45 801.5C139.684 801.19 134.017 800.36 128.45 799C129.575 789.71 130.241 780.38 130.45 771Z" fill="#077DCC"/>
<path opacity="0.987" fill-rule="evenodd" clip-rule="evenodd" d="M128.45 799C134.017 800.36 139.684 801.19 145.45 801.5C147.991 801.88 150.324 802.71 152.45 804C153.639 803.74 154.806 803.41 155.95 803C159.76 804.24 163.594 805.41 167.45 806.5C168.287 807.51 168.62 808.68 168.45 810C166.754 818.42 164.088 826.42 160.45 834C156.949 832.56 153.449 830.9 149.95 829C149.536 829.46 149.036 829.79 148.45 830C140.746 828.33 133.079 826.99 125.45 826C126.815 817.04 127.815 808.04 128.45 799Z" fill="#088AD8"/>
<path opacity="0.988" fill-rule="evenodd" clip-rule="evenodd" d="M125.45 826C133.079 826.99 140.746 828.33 148.45 830C149.036 829.79 149.536 829.46 149.95 829C153.449 830.9 156.949 832.56 160.45 834C157.411 844.46 153.411 854.46 148.45 864C148.48 863 147.98 862.34 146.95 862C137.938 859.59 129.104 856.93 120.45 854C122.117 844.67 123.783 835.33 125.45 826Z" fill="#0996E2"/>
<path opacity="0.961" fill-rule="evenodd" clip-rule="evenodd" d="M724.45 826C749.75 844.33 776.42 860.66 804.45 875C801.06 879.06 798.06 883.39 795.45 888C769.98 869.54 746.32 848.87 724.45 826Z" fill="#0EBDFA"/>
<path opacity="0.981" fill-rule="evenodd" clip-rule="evenodd" d="M120.45 854C129.104 856.93 137.938 859.59 146.95 862C147.98 862.34 148.48 863 148.45 864C142.718 877.8 135.718 890.8 127.45 903C120.755 901.15 114.422 898.48 108.45 895C113.258 881.58 117.258 867.91 120.45 854Z" fill="#0BA2EE"/>
<path opacity="0.973" fill-rule="evenodd" clip-rule="evenodd" d="M804.45 875C818.66 881.94 833 888.61 847.45 895C846.37 902.95 844.37 910.95 841.45 919C825.39 909.64 810.06 899.31 795.45 888C798.06 883.39 801.06 879.06 804.45 875Z" fill="#0DB3F6"/>
<path opacity="0.982" fill-rule="evenodd" clip-rule="evenodd" d="M847.45 895C860.55 900.88 873.89 906.22 887.45 911C884.21 920.74 880.88 930.07 877.45 939C864.8 933.34 852.8 926.68 841.45 919C844.37 910.95 846.37 902.95 847.45 895Z" fill="#0BA7EF"/>
<path opacity="0.987" fill-rule="evenodd" clip-rule="evenodd" d="M887.45 911C898.37 914.86 909.37 918.53 920.45 922C919.49 927.06 917.82 931.89 915.45 936.5C915.78 936.83 916.12 937.17 916.45 937.5C913.29 942.85 910.62 948.35 908.45 954C901.02 951.12 893.69 947.95 886.45 944.5C883.05 943.14 880.05 941.31 877.45 939C880.88 930.07 884.21 920.74 887.45 911Z" fill="#0A9AE6"/>
<path opacity="0.992" fill-rule="evenodd" clip-rule="evenodd" d="M1294.45 913C1301.33 930.42 1308.49 947.76 1315.95 965C1316.7 966.14 1316.53 967.14 1315.45 968C1291.42 973.67 1267.42 979.34 1243.45 985C1241.27 968.8 1238.93 952.3 1236.45 935.5C1236.56 933.91 1236.89 932.41 1237.45 931C1256.82 926.08 1275.82 920.08 1294.45 913Z" fill="#000E62"/>
<path opacity="0.987" fill-rule="evenodd" clip-rule="evenodd" d="M920.45 922C929.72 924.87 939.06 927.54 948.45 930C944.45 942.01 940.45 954.01 936.45 966C926.82 962.51 917.49 958.51 908.45 954C910.62 948.35 913.29 942.85 916.45 937.5C916.12 937.17 915.78 936.83 915.45 936.5C917.82 931.89 919.49 927.06 920.45 922Z" fill="#088DDB"/>
<path opacity="0.916" fill-rule="evenodd" clip-rule="evenodd" d="M108.45 895C114.422 898.48 120.755 901.15 127.45 903C114.136 926.32 98.1362 947.65 79.4502 967C89.1172 943 98.7832 919 108.45 895Z" fill="#0CAEF8"/>
<path opacity="0.991" fill-rule="evenodd" clip-rule="evenodd" d="M1237.45 931C1236.89 932.41 1236.56 933.91 1236.45 935.5C1238.93 952.3 1241.27 968.8 1243.45 985C1234.16 986.92 1224.83 988.59 1215.45 990C1214.06 974.84 1211.39 959.68 1207.45 944.5C1207.78 944.17 1208.12 943.83 1208.45 943.5C1206.65 941.8 1206.32 939.97 1207.45 938C1217.57 936.18 1227.57 933.84 1237.45 931Z" fill="#001569"/>
<path opacity="0.989" fill-rule="evenodd" clip-rule="evenodd" d="M948.45 930C956.03 932.05 963.7 933.72 971.45 935C968.44 948.37 965.44 961.7 962.45 975C953.79 972 945.12 969 936.45 966C940.45 954.01 944.45 942.01 948.45 930Z" fill="#0782D2"/>
<path opacity="0.991" fill-rule="evenodd" clip-rule="evenodd" d="M1207.45 938C1206.32 939.97 1206.65 941.8 1208.45 943.5C1208.12 943.83 1207.78 944.17 1207.45 944.5C1211.39 959.68 1214.06 974.84 1215.45 990C1210.53 991.28 1205.53 992.28 1200.45 993C1199.85 982.24 1198.19 971.41 1195.45 960.5C1196.26 957.39 1195.59 954.06 1193.45 950.5C1194.29 948.43 1194.29 946.27 1193.45 944C1193.66 942.51 1194.33 941.34 1195.45 940.5C1199.53 939.98 1203.53 939.14 1207.45 938Z" fill="#001A6E"/>
<path opacity="0.988" fill-rule="evenodd" clip-rule="evenodd" d="M987.45 939C995.61 940.14 1003.61 941.47 1011.45 943C1008.4 957.52 1006.07 971.86 1004.45 986C995.73 984.21 987.07 982.21 978.45 980C981.78 966.71 984.78 953.05 987.45 939Z" fill="#056FC1"/>
<path opacity="0.99" fill-rule="evenodd" clip-rule="evenodd" d="M1011.45 943C1020.12 944 1028.78 945 1037.45 946C1035.63 960.79 1033.63 976.12 1031.45 992C1022.43 990.11 1013.43 988.11 1004.45 986C1006.07 971.86 1008.4 957.52 1011.45 943Z" fill="#0462B5"/>
<path opacity="0.99" fill-rule="evenodd" clip-rule="evenodd" d="M1170.45 996C1164.3 997.04 1157.97 997.71 1151.45 998C1151.3 994.15 1151.3 990.31 1151.45 986.5C1149.83 980.92 1149.5 975.92 1150.45 971.5C1148.76 966.56 1148.43 961.9 1149.45 957.5C1148.37 953.84 1147.71 950.34 1147.45 947C1153.33 945.78 1159.16 945.78 1164.95 947C1165.16 950.26 1165.66 953.42 1166.45 956.5C1166.12 957.5 1165.78 958.5 1165.45 959.5C1167.17 971.05 1168.84 983.22 1170.45 996Z" fill="#00277B"/>
<path opacity="0.991" fill-rule="evenodd" clip-rule="evenodd" d="M1037.45 946C1045.76 946.94 1054.09 947.61 1062.45 948C1062.75 948.65 1063.09 949.32 1063.45 950C1062.31 956.61 1060.97 963.44 1059.45 970.5C1059.78 971.5 1060.12 972.5 1060.45 973.5C1059.27 980.14 1058.27 986.81 1057.45 993.5C1058.01 993.88 1058.34 994.38 1058.45 995C1049.42 994.28 1040.42 993.28 1031.45 992C1033.63 976.12 1035.63 960.79 1037.45 946Z" fill="#0356A9"/>
<path opacity="0.988" fill-rule="evenodd" clip-rule="evenodd" d="M1147.45 947C1147.71 950.34 1148.37 953.84 1149.45 957.5C1148.43 961.9 1148.76 966.56 1150.45 971.5C1149.5 975.92 1149.83 980.92 1151.45 986.5C1151.3 990.31 1151.3 994.15 1151.45 998C1142.13 998.63 1132.8 998.96 1123.45 999C1123.68 982.32 1123.68 965.65 1123.45 949C1120.45 949 1117.45 949 1114.45 949C1125.28 948.09 1136.28 947.42 1147.45 947Z" fill="#003185"/>
<path opacity="0.991" fill-rule="evenodd" clip-rule="evenodd" d="M1062.45 948C1071.76 948.82 1081.09 949.15 1090.45 949C1089.76 965.47 1088.76 981.81 1087.45 998C1077.59 997.49 1067.92 996.49 1058.45 995C1058.34 994.38 1058.01 993.88 1057.45 993.5C1058.27 986.81 1059.27 980.14 1060.45 973.5C1060.12 972.5 1059.78 971.5 1059.45 970.5C1060.97 963.44 1062.31 956.61 1063.45 950C1063.09 949.32 1062.75 948.65 1062.45 948Z" fill="#02499D"/>
<path opacity="0.989" fill-rule="evenodd" clip-rule="evenodd" d="M1090.45 949C1098.45 949 1106.45 949 1114.45 949C1117.45 949 1120.45 949 1123.45 949C1123.68 965.65 1123.68 982.32 1123.45 999C1111.44 999.08 1099.44 998.74 1087.45 998C1088.76 981.81 1089.76 965.47 1090.45 949Z" fill="#013C8F"/>
<path opacity="0.992" fill-rule="evenodd" clip-rule="evenodd" d="M934.45 1015C904.78 1022.45 876.11 1032.45 848.45 1045C836.96 1049.05 825.96 1054.05 815.45 1060C805.3 1064.24 795.64 1069.24 786.45 1075C776.82 1079.82 767.49 1085.15 758.45 1091C753.08 1094.68 747.75 1098.35 742.45 1102C738.57 1104.43 734.9 1107.1 731.45 1110C727.45 1113 723.45 1116 719.45 1119C715.16 1121.96 711.16 1125.29 707.45 1129C704.44 1131.85 701.27 1134.51 697.95 1137C695.61 1135.82 693.77 1134.15 692.45 1132C687.12 1126 681.45 1120.33 675.45 1115C671.78 1110.67 667.78 1106.67 663.45 1103C659.49 1099.34 655.49 1095.68 651.45 1092C645.73 1085.94 639.39 1080.61 632.45 1076C628.03 1071.25 623.03 1067.25 617.45 1064C612.09 1059.31 606.43 1054.98 600.45 1051C593.75 1045.64 586.75 1040.64 579.45 1036C573.32 1031.76 566.99 1027.76 560.45 1024C554.85 1020.53 549.18 1017.03 543.45 1013.5C541.69 1012.7 540.02 1012.87 538.45 1014C531.73 1025.7 525.06 1037.37 518.45 1049C499.34 1037.27 480 1025.77 460.45 1014.5C507.9 996.77 553.57 975.27 597.45 950C632.81 973.52 666.31 999.52 697.95 1028C729.59 999.52 763.09 973.52 798.45 950C842.3 975.26 887.97 996.76 935.45 1014.5C935.22 1014.9 934.89 1015.07 934.45 1015Z" fill="#002175"/>
<path opacity="0.959" fill-rule="evenodd" clip-rule="evenodd" d="M971.45 935C976.75 936.46 982.09 937.79 987.45 939C984.78 953.05 981.78 966.71 978.45 980C973.23 978.03 967.89 976.36 962.45 975C965.44 961.7 968.44 948.37 971.45 935Z" fill="#067ACA"/>
<path opacity="0.989" fill-rule="evenodd" clip-rule="evenodd" d="M560.45 1024C558.64 1025.55 556.8 1027.22 554.95 1029C549.55 1037.07 544.55 1045.4 539.95 1054C538.33 1056.26 536.5 1058.26 534.45 1060C528.73 1056.81 523.4 1053.15 518.45 1049C525.06 1037.37 531.73 1025.7 538.45 1014C540.02 1012.87 541.69 1012.7 543.45 1013.5C549.18 1017.03 554.85 1020.53 560.45 1024Z" fill="#002D80"/>
<path opacity="0.966" fill-rule="evenodd" clip-rule="evenodd" d="M934.45 1015C908.48 1029.65 883.15 1045.32 858.45 1062C853.32 1057.42 849.99 1051.75 848.45 1045C876.11 1032.45 904.78 1022.45 934.45 1015Z" fill="#10D0FD"/>
<path opacity="0.99" fill-rule="evenodd" clip-rule="evenodd" d="M560.45 1024C566.99 1027.76 573.32 1031.76 579.45 1036C571.45 1047.29 562.95 1058.29 553.95 1069C553.16 1070.24 552.66 1071.58 552.45 1073C546.06 1069.14 540.06 1064.81 534.45 1060C536.5 1058.26 538.33 1056.26 539.95 1054C544.55 1045.4 549.55 1037.07 554.95 1029C556.8 1027.22 558.64 1025.55 560.45 1024Z" fill="#01378A"/>
<path opacity="0.987" fill-rule="evenodd" clip-rule="evenodd" d="M579.45 1036C586.75 1040.64 593.75 1045.64 600.45 1051C590.88 1063.13 581.55 1075.46 572.45 1088C565.39 1083.47 558.72 1078.47 552.45 1073C552.66 1071.58 553.16 1070.24 553.95 1069C562.95 1058.29 571.45 1047.29 579.45 1036Z" fill="#024497"/>
<path opacity="0.979" fill-rule="evenodd" clip-rule="evenodd" d="M848.45 1045C849.99 1051.75 853.32 1057.42 858.45 1062C849.82 1068.32 841.15 1074.65 832.45 1081C827.01 1073.79 821.35 1066.79 815.45 1060C825.96 1054.05 836.96 1049.05 848.45 1045Z" fill="#0FCAFC"/>
<path opacity="0.992" fill-rule="evenodd" clip-rule="evenodd" d="M600.45 1051C606.43 1054.98 612.09 1059.31 617.45 1064C611.98 1073.49 605.31 1082.15 597.45 1090C594.77 1094.03 592.11 1098.03 589.45 1102C583.56 1097.56 577.89 1092.9 572.45 1088C581.55 1075.46 590.88 1063.13 600.45 1051Z" fill="#0352A4"/>
<path opacity="0.984" fill-rule="evenodd" clip-rule="evenodd" d="M815.45 1060C821.35 1066.79 827.01 1073.79 832.45 1081C822.76 1089.35 812.76 1097.35 802.45 1105C800.82 1103.87 799.32 1102.54 797.95 1101C793.43 1092.59 789.59 1083.92 786.45 1075C795.64 1069.24 805.3 1064.24 815.45 1060Z" fill="#0EC1FA"/>
<path opacity="0.99" fill-rule="evenodd" clip-rule="evenodd" d="M617.45 1064C623.03 1067.25 628.03 1071.25 632.45 1076C627.4 1082.39 622.57 1089.06 617.95 1096C612.21 1101.24 607.04 1106.9 602.45 1113C597.8 1109.68 593.46 1106.01 589.45 1102C592.11 1098.03 594.77 1094.03 597.45 1090C605.31 1082.15 611.98 1073.49 617.45 1064Z" fill="#045EAF"/>
<path opacity="0.987" fill-rule="evenodd" clip-rule="evenodd" d="M786.45 1075C789.59 1083.92 793.43 1092.59 797.95 1101C799.32 1102.54 800.82 1103.87 802.45 1105C794.49 1111.99 786.49 1118.99 778.45 1126C773.26 1116.29 767.43 1106.96 760.95 1098C760.1 1095.65 759.27 1093.31 758.45 1091C767.49 1085.15 776.82 1079.82 786.45 1075Z" fill="#0DB9F6"/>
<path opacity="0.988" fill-rule="evenodd" clip-rule="evenodd" d="M632.45 1076C639.39 1080.61 645.73 1085.94 651.45 1092C648.39 1092.3 645.89 1093.63 643.95 1096C635.61 1106.5 627.11 1116.84 618.45 1127C612.8 1122.68 607.46 1118.01 602.45 1113C607.04 1106.9 612.21 1101.24 617.95 1096C622.57 1089.06 627.4 1082.39 632.45 1076Z" fill="#056BBB"/>
<path opacity="0.983" fill-rule="evenodd" clip-rule="evenodd" d="M651.45 1092C655.49 1095.68 659.49 1099.34 663.45 1103C661.78 1104.5 659.94 1105.84 657.95 1107C649.97 1118.8 641.47 1130.13 632.45 1141C627.45 1136.67 622.78 1132 618.45 1127C627.11 1116.84 635.61 1106.5 643.95 1096C645.89 1093.63 648.39 1092.3 651.45 1092Z" fill="#0677C6"/>
<path opacity="0.99" fill-rule="evenodd" clip-rule="evenodd" d="M742.45 1102C747.91 1114.92 753.91 1127.58 760.45 1140C760.91 1140.8 761.57 1141.13 762.45 1141C757.09 1146.69 751.76 1152.36 746.45 1158C744.72 1157.49 744.38 1156.66 745.45 1155.5C742.94 1149.08 740.61 1142.24 738.45 1135C738.66 1134.41 738.99 1133.91 739.45 1133.5C734.51 1126.51 731.84 1118.67 731.45 1110C734.9 1107.1 738.57 1104.43 742.45 1102Z" fill="#0BABF0"/>
<path opacity="0.973" fill-rule="evenodd" clip-rule="evenodd" d="M758.45 1091C759.27 1093.31 760.1 1095.65 760.95 1098C767.43 1106.96 773.26 1116.29 778.45 1126C773.75 1131.71 768.41 1136.71 762.45 1141C761.57 1141.13 760.91 1140.8 760.45 1140C753.91 1127.58 747.91 1114.92 742.45 1102C747.75 1098.35 753.08 1094.68 758.45 1091Z" fill="#0CB1F3"/>
<path opacity="0.989" fill-rule="evenodd" clip-rule="evenodd" d="M731.45 1110C731.84 1118.67 734.51 1126.51 739.45 1133.5C738.99 1133.91 738.66 1134.41 738.45 1135C740.61 1142.24 742.94 1149.08 745.45 1155.5C744.38 1156.66 744.72 1157.49 746.45 1158C739.21 1165.52 732.21 1173.19 725.45 1181C724.51 1174.46 723.51 1168.12 722.45 1162C723.62 1160.59 723.28 1159.43 721.45 1158.5C721.78 1158.17 722.12 1157.83 722.45 1157.5C720.52 1153.99 720.52 1150.66 722.45 1147.5C722.22 1143.83 722.22 1140.16 722.45 1136.5C721.34 1130.35 720.34 1124.52 719.45 1119C723.45 1116 727.45 1113 731.45 1110Z" fill="#0BA4EC"/>
<path opacity="0.981" fill-rule="evenodd" clip-rule="evenodd" d="M663.45 1103C667.78 1106.67 671.78 1110.67 675.45 1115C669.06 1130.79 660.39 1145.13 649.45 1158C643.55 1152.48 637.88 1146.82 632.45 1141C641.47 1130.13 649.97 1118.8 657.95 1107C659.94 1105.84 661.78 1104.5 663.45 1103Z" fill="#0884D3"/>
<path opacity="0.981" fill-rule="evenodd" clip-rule="evenodd" d="M719.45 1119C720.34 1124.52 721.34 1130.35 722.45 1136.5C722.22 1140.16 722.22 1143.83 722.45 1147.5C720.52 1150.66 720.52 1153.99 722.45 1157.5C722.12 1157.83 721.78 1158.17 721.45 1158.5C723.28 1159.43 723.62 1160.59 722.45 1162C723.51 1168.12 724.51 1174.46 725.45 1181C716.12 1192.5 706.95 1204.17 697.95 1216C694.2 1211.48 690.7 1206.82 687.45 1202C694.01 1189.36 699.35 1175.36 703.45 1160C703.44 1149.66 704.77 1139.32 707.45 1129C711.16 1125.29 715.16 1121.96 719.45 1119Z" fill="#0A9FE9"/>
<path opacity="0.987" fill-rule="evenodd" clip-rule="evenodd" d="M675.45 1115C681.45 1120.33 687.12 1126 692.45 1132C686.94 1143.64 682.11 1155.31 677.95 1167C674.87 1171.13 671.7 1175.13 668.45 1179C661.89 1172.23 655.56 1165.23 649.45 1158C660.39 1145.13 669.06 1130.79 675.45 1115Z" fill="#0990DD"/>
<path opacity="0.989" fill-rule="evenodd" clip-rule="evenodd" d="M707.45 1129C704.77 1139.32 703.44 1149.66 703.45 1160C699.35 1175.36 694.01 1189.36 687.45 1202C680.89 1194.56 674.56 1186.89 668.45 1179C671.7 1175.13 674.87 1171.13 677.95 1167C682.11 1155.31 686.94 1143.64 692.45 1132C693.77 1134.15 695.61 1135.82 697.95 1137C701.27 1134.51 704.44 1131.85 707.45 1129Z" fill="#0A99E4"/>
<path opacity="0.984" fill-rule="evenodd" clip-rule="evenodd" d="M2361.25 465.635C2411.8 460.865 2454.97 476.205 2490.75 511.635C2521.89 548.525 2532.89 590.865 2523.75 638.635C2511.73 688.995 2481.56 723.495 2433.25 742.135C2378.07 759.915 2327.4 751.575 2281.25 717.135C2238.8 677.765 2223.63 629.595 2235.75 572.635C2249.45 521.935 2281.28 488.435 2331.25 472.135C2341.25 469.295 2351.25 467.135 2361.25 465.635ZM2366.25 518.635C2403.77 514.825 2433.27 528.155 2454.75 558.635C2473.96 595.015 2472.29 630.345 2449.75 664.635C2426.06 691.975 2396.23 702.475 2360.25 696.135C2315.28 683.975 2291.95 654.475 2290.25 607.635C2292.99 558.395 2318.32 528.735 2366.25 518.635Z" fill="#002075"/>
<path opacity="0.988" fill-rule="evenodd" clip-rule="evenodd" d="M1490.25 469.635C1527.25 469.465 1564.25 469.635 1601.25 470.135C1649.2 474.345 1686.04 496.505 1711.75 536.635C1731.65 576.355 1734.65 617.355 1720.75 659.635C1703.53 701.515 1673.03 728.675 1629.25 741.135C1620.03 743.445 1610.69 745.115 1601.25 746.135C1564.25 746.635 1527.25 746.805 1490.25 746.635C1490.25 654.305 1490.25 561.965 1490.25 469.635ZM1548.25 520.635C1566.28 520.235 1584.28 520.735 1602.25 522.135C1638.19 529.415 1660.36 550.915 1668.75 586.635C1674.44 615.795 1668.78 642.465 1651.75 666.635C1638.39 681.395 1621.89 690.565 1602.25 694.135C1584.28 695.535 1566.28 696.035 1548.25 695.635C1548.25 637.305 1548.25 578.965 1548.25 520.635Z" fill="#002075"/>
<path opacity="0.989" fill-rule="evenodd" clip-rule="evenodd" d="M1764.25 469.635C1826.58 469.635 1888.92 469.635 1951.25 469.635C1951.25 486.635 1951.25 503.635 1951.25 520.635C1908.25 520.635 1865.25 520.635 1822.25 520.635C1822.25 540.965 1822.25 561.305 1822.25 581.635C1862.91 581.635 1903.58 581.635 1944.25 581.635C1944.25 598.635 1944.25 615.635 1944.25 632.635C1903.58 632.635 1862.91 632.635 1822.25 632.635C1822.25 653.635 1822.25 674.635 1822.25 695.635C1865.25 695.635 1908.25 695.635 1951.25 695.635C1951.25 712.635 1951.25 729.635 1951.25 746.635C1888.92 746.635 1826.58 746.635 1764.25 746.635C1764.25 654.305 1764.25 561.965 1764.25 469.635Z" fill="#002075"/>
<path opacity="0.986" fill-rule="evenodd" clip-rule="evenodd" d="M1967.25 469.635C1989.25 469.635 2011.25 469.635 2033.25 469.635C2053.57 540.435 2074.4 611.095 2095.75 681.635C2117.1 611.095 2137.93 540.435 2158.25 469.635C2180.25 469.635 2202.25 469.635 2224.25 469.635C2195.59 561.965 2166.92 654.295 2138.25 746.635C2109.92 746.635 2081.58 746.635 2053.25 746.635C2024.58 654.295 1995.91 561.965 1967.25 469.635Z" fill="#002075"/>
<path opacity="0.989" fill-rule="evenodd" clip-rule="evenodd" d="M2561.25 469.635C2605.25 469.465 2649.25 469.635 2693.25 470.135C2719.19 472.355 2740.69 483.195 2757.75 502.635C2772.93 525.495 2777.93 550.495 2772.75 577.635C2767.2 604.755 2752.03 624.415 2727.25 636.635C2748.17 672.805 2768.84 709.135 2789.25 745.635C2767.25 746.965 2745.25 746.965 2723.25 745.635C2704.92 712.965 2686.58 680.305 2668.25 647.635C2651.93 646.635 2635.6 646.305 2619.25 646.635C2619.25 679.965 2619.25 713.305 2619.25 746.635C2599.92 746.635 2580.58 746.635 2561.25 746.635C2561.25 654.305 2561.25 561.965 2561.25 469.635ZM2619.25 520.635C2640.92 520.465 2662.59 520.635 2684.25 521.135C2704.3 525.025 2714.97 537.185 2716.25 557.635C2713.9 581.155 2700.9 593.655 2677.25 595.135C2657.92 595.635 2638.59 595.805 2619.25 595.635C2619.25 570.635 2619.25 545.635 2619.25 520.635Z" fill="#002075"/>
<path opacity="0.996" fill-rule="evenodd" clip-rule="evenodd" d="M2820.25 469.635C2839.58 469.635 2858.92 469.635 2878.25 469.635C2878.25 561.965 2878.25 654.305 2878.25 746.635C2858.92 746.635 2839.58 746.635 2820.25 746.635C2820.25 654.305 2820.25 561.965 2820.25 469.635Z" fill="#002075"/>
<path opacity="0.986" fill-rule="evenodd" clip-rule="evenodd" d="M2996.25 469.635C3022.25 469.635 3048.25 469.635 3074.25 469.635C3105.37 561.675 3136.71 653.675 3168.25 745.635C3147.59 746.805 3126.92 746.965 3106.25 746.135C3099.55 727.865 3093.55 709.365 3088.25 690.635C3052.91 690.305 3017.58 690.635 2982.25 691.635C2976.05 709.575 2970.05 727.575 2964.25 745.635C2943.59 746.635 2922.93 746.965 2902.25 746.635C2933.19 654.155 2964.52 561.825 2996.25 469.635ZM3034.25 530.635C3034.87 530.745 3035.37 531.075 3035.75 531.635C3047.39 567.555 3059.22 603.395 3071.25 639.135C3047.24 639.965 3023.24 639.805 2999.25 638.635C3011.32 602.745 3022.99 566.745 3034.25 530.635Z" fill="#002075"/>
<path opacity="0.959" fill-rule="evenodd" clip-rule="evenodd" d="M2378.25 565.635C2389.72 584.935 2405.39 600.105 2425.25 611.135C2406.01 623.205 2390.68 639.035 2379.25 658.635C2367.99 639.045 2352.66 623.375 2333.25 611.635C2346.7 603.365 2358.87 593.365 2369.75 581.635C2373.39 576.695 2376.22 571.355 2378.25 565.635Z" fill="#002075"/>
</svg>
